<svg width="88" height="25" viewBox="0 0 88 25" fill="currentColor" xmlns="http://www.w3.org/2000/svg">
<g clip-path="url(#clip0_811_2465)">
<path d="M1.82125 14.0451C2.47397 14.0451 3.00309 13.5164 3.00309 12.8643C3.00309 12.2122 2.47397 11.6836 1.82125 11.6836C1.16854 11.6836 0.639404 12.2122 0.639404 12.8643C0.639404 13.5164 1.16854 14.0451 1.82125 14.0451Z" fill="url(#paint0_linear_811_2465)"/>
<path d="M11.8498 24.064C12.5025 24.064 13.0316 23.5354 13.0316 22.8833C13.0316 22.2312 12.5025 21.7025 11.8498 21.7025C11.197 21.7025 10.668 22.2312 10.668 22.8833C10.668 23.5354 11.197 24.064 11.8498 24.064Z" fill="url(#paint1_linear_811_2465)"/>
<path d="M5.02477 7.62023C5.89506 7.62023 6.60056 6.91536 6.60056 6.04589C6.60056 5.17641 5.89506 4.47156 5.02477 4.47156C4.15448 4.47156 3.44897 5.17641 3.44897 6.04589C3.44897 6.91536 4.15448 7.62023 5.02477 7.62023Z" fill="url(#paint2_linear_811_2465)"/>
<path d="M18.5352 21.1179C19.4055 21.1179 20.111 20.4131 20.111 19.5436C20.111 18.6741 19.4055 17.9692 18.5352 17.9692C17.6649 17.9692 16.9594 18.6741 16.9594 19.5436C16.9594 20.4131 17.6649 21.1179 18.5352 21.1179Z" fill="url(#paint3_linear_811_2465)"/>
<path d="M11.8498 4.81326C12.9376 4.81326 13.8195 3.9322 13.8195 2.84535C13.8195 1.7585 12.9376 0.877441 11.8498 0.877441C10.7619 0.877441 9.88 1.7585 9.88 2.84535C9.88 3.9322 10.7619 4.81326 11.8498 4.81326Z" fill="url(#paint4_linear_811_2465)"/>
<path d="M23.8478 12.8643C23.8478 11.7774 22.9659 10.8964 21.8781 10.8964C20.7902 10.8964 19.9083 11.7774 19.9083 12.8643C19.9083 13.9511 20.7902 14.8322 21.8781 14.8322C22.9659 14.8322 23.8478 13.9511 23.8478 12.8643Z" fill="url(#paint5_linear_811_2465)"/>
<path d="M20.2068 4.51507C19.2805 3.5897 17.7902 3.5897 16.8639 4.51507C16.8152 4.56377 16.7665 4.61247 16.7316 4.66118C16.7316 4.66118 4.56537 19.0425 4.56537 19.0286C4.30073 19.3347 4.32163 19.8009 4.61412 20.0931C4.90661 20.3854 5.36624 20.3993 5.67962 20.1419C5.67266 20.1488 20.0605 7.98689 20.0605 7.98689C20.1162 7.94519 20.158 7.90341 20.2068 7.8547C21.133 6.92936 21.133 5.44043 20.2068 4.51507Z" fill="url(#paint6_linear_811_2465)"/>
<path d="M5.16437 20.3308C5.59951 20.3308 5.95226 19.9784 5.95226 19.5436C5.95226 19.1089 5.59951 18.7565 5.16437 18.7565C4.72922 18.7565 4.37646 19.1089 4.37646 19.5436C4.37646 19.9784 4.72922 20.3308 5.16437 20.3308Z" fill="url(#paint7_linear_811_2465)"/>
<path d="M32.7242 15.5374V6.64038H36.5089C37.0646 6.64038 37.5601 6.7295 37.9807 6.92259C38.4012 7.11569 38.7316 7.38306 38.9719 7.7395C39.2122 8.09599 39.3323 8.52676 39.3323 9.01688V9.15057C39.3323 9.71502 39.1972 10.1606 38.9268 10.4874C38.6565 10.829 38.3261 11.0518 37.9356 11.2003V11.4083C38.266 11.4231 38.5214 11.5271 38.7166 11.735C38.9118 11.9281 39.0169 12.2252 39.0169 12.5965V15.5523H37.6203V12.7748C37.6203 12.552 37.5601 12.3588 37.44 12.2252C37.3199 12.0915 37.1246 12.0173 36.8543 12.0173H34.1059V15.5374H32.7242ZM34.1059 10.7844H36.3437C36.8393 10.7844 37.2297 10.6656 37.5001 10.4131C37.7704 10.1606 37.9056 9.81893 37.9056 9.38823V9.28425C37.9056 8.85349 37.7704 8.51191 37.5001 8.25939C37.2297 8.00687 36.8393 7.88804 36.3286 7.88804H34.0909V10.7844H34.1059Z" fill="currentColor"/>
<path d="M43.2829 15.7155C42.6371 15.7155 42.0815 15.5818 41.6008 15.3144C41.1202 15.0471 40.7448 14.6758 40.4745 14.1856C40.2041 13.6955 40.069 13.131 40.069 12.4924V12.3438C40.069 11.6903 40.2041 11.1259 40.4745 10.6357C40.7448 10.1456 41.1052 9.7742 41.5858 9.50689C42.0664 9.23952 42.6071 9.10583 43.2378 9.10583C43.8536 9.10583 44.3792 9.23952 44.8448 9.50689C45.3104 9.7742 45.6558 10.1456 45.9261 10.6209C46.1814 11.0961 46.3166 11.6457 46.3166 12.2844V12.7746H41.4356C41.4506 13.3241 41.6459 13.7697 41.9913 14.0965C42.3517 14.4233 42.7873 14.5867 43.328 14.5867C43.8235 14.5867 44.199 14.4827 44.4544 14.2599C44.7096 14.0371 44.9049 13.7846 45.04 13.5024L46.1364 14.0668C46.0163 14.3044 45.836 14.5569 45.6107 14.8243C45.3855 15.0917 45.0851 15.3144 44.7096 15.4927C44.3192 15.6264 43.8536 15.7155 43.2829 15.7155ZM41.4206 11.7646H44.9349C44.9049 11.2893 44.7246 10.9179 44.4243 10.6506C44.1089 10.3832 43.7184 10.2495 43.2078 10.2495C42.7122 10.2495 42.3067 10.3832 41.9913 10.6506C41.6909 10.9179 41.4957 11.2893 41.4206 11.7646Z" fill="currentColor"/>
<path d="M49.4845 15.7156C49.0339 15.7156 48.6285 15.6413 48.268 15.4928C47.9075 15.3442 47.6222 15.1214 47.412 14.8244C47.2017 14.5273 47.0966 14.1708 47.0966 13.7401C47.0966 13.3094 47.2017 12.9529 47.412 12.6706C47.6222 12.3885 47.9075 12.1657 48.268 12.032C48.6285 11.8834 49.049 11.8092 49.5145 11.8092H51.4519V11.3933C51.4519 11.022 51.3468 10.7397 51.1215 10.5169C50.8963 10.2942 50.5508 10.1902 50.0853 10.1902C49.6347 10.1902 49.2893 10.2942 49.049 10.5021C48.8086 10.71 48.6435 10.9923 48.5684 11.3339L47.3368 10.9328C47.442 10.5912 47.6072 10.2793 47.8325 10.012C48.0578 9.72972 48.3581 9.50691 48.7336 9.34352C49.109 9.18019 49.5596 9.09106 50.1003 9.09106C50.9262 9.09106 51.5721 9.29896 52.0376 9.71487C52.5032 10.1308 52.7435 10.7249 52.7435 11.4824V14.0668C52.7435 14.3194 52.8636 14.4531 53.1039 14.4531H53.6446V15.5522H52.6534C52.353 15.5522 52.1127 15.4779 51.9175 15.3294C51.7222 15.1808 51.6321 14.9729 51.6321 14.7056V14.661H51.4369C51.3618 14.7947 51.2717 14.9432 51.1215 15.1066C50.9864 15.27 50.7761 15.4185 50.5208 15.5522C50.2805 15.6562 49.92 15.7156 49.4845 15.7156ZM49.6797 14.6462C50.2054 14.6462 50.6409 14.4976 50.9713 14.2005C51.3017 13.9035 51.4669 13.4876 51.4669 12.9529V12.8192H49.6197C49.2742 12.8192 48.9889 12.8934 48.7636 13.042C48.5534 13.1905 48.4482 13.4133 48.4482 13.6956C48.4482 13.9777 48.5534 14.2154 48.7786 14.3788C48.9889 14.557 49.2893 14.6462 49.6797 14.6462Z" fill="currentColor"/>
<path d="M57.1592 15.7157C56.6335 15.7157 56.153 15.582 55.7024 15.3295C55.2519 15.077 54.8914 14.7057 54.621 14.2304C54.3508 13.7551 54.2156 13.1758 54.2156 12.4925V12.2994C54.2156 11.6311 54.3508 11.0518 54.621 10.5616C54.8914 10.0715 55.2368 9.71502 55.6874 9.44765C56.1379 9.19513 56.6185 9.06144 57.1592 9.06144C57.5646 9.06144 57.9101 9.10601 58.1954 9.20998C58.4808 9.31396 58.7061 9.44765 58.8862 9.59619C59.0665 9.75958 59.2017 9.92291 59.2918 10.0863H59.502V6.64038H60.8236V15.5523H59.5171V14.6611H59.3068C59.1416 14.9285 58.9013 15.181 58.5709 15.4038C58.2555 15.6117 57.7749 15.7157 57.1592 15.7157ZM57.5346 14.572C58.1053 14.572 58.5859 14.3937 58.9614 14.0224C59.3368 13.6511 59.5171 13.1313 59.5171 12.4628V12.344C59.5171 11.6756 59.3368 11.1557 58.9614 10.7844C58.5859 10.4131 58.1203 10.2348 57.5346 10.2348C56.9639 10.2348 56.4984 10.4131 56.1229 10.7844C55.7474 11.1557 55.5672 11.6608 55.5672 12.344V12.4628C55.5672 13.1461 55.7474 13.6659 56.1229 14.0224C56.4984 14.3937 56.9639 14.572 57.5346 14.572Z" fill="currentColor"/>
<path d="M62.2519 18.0921V16.9781H63.4384C63.6185 16.9781 63.7537 16.9484 63.8288 16.889C63.9039 16.8295 63.979 16.7256 64.039 16.5919L64.2793 16.0126L61.6211 9.26929H63.0629L64.835 14.1115H65.0303L66.8027 9.26929H68.2441L65.1504 17.0672C65.0153 17.4237 64.835 17.6762 64.6097 17.8396C64.3845 18.003 64.0541 18.0772 63.5885 18.0772H62.2519V18.0921Z" fill="currentColor"/>
<path d="M72.3434 15.7155C71.6675 15.7155 71.067 15.5967 70.5411 15.359C70.0158 15.1214 69.61 14.7649 69.3101 14.3044C69.0095 13.844 68.8595 13.2796 68.8595 12.6112V12.2993H70.2411V12.6112C70.2411 13.235 70.4359 13.7103 70.8118 14.0223C71.1871 14.3341 71.6974 14.4975 72.3434 14.4975C72.9894 14.4975 73.4698 14.3638 73.8003 14.0965C74.1308 13.8292 74.2957 13.4875 74.2957 13.0568C74.2957 12.7746 74.221 12.5518 74.0704 12.3735C73.9204 12.1953 73.6951 12.0467 73.4095 11.9428C73.1244 11.8388 72.794 11.7349 72.3888 11.6458L71.9077 11.5418C71.337 11.4081 70.8267 11.2447 70.406 11.0367C69.9853 10.8436 69.6555 10.5763 69.4146 10.2347C69.1893 9.90789 69.0692 9.47719 69.0692 8.9573C69.0692 8.43741 69.2049 7.97699 69.4601 7.60564C69.7152 7.23436 70.0905 6.93726 70.5411 6.74417C70.9916 6.55108 71.5474 6.43225 72.1785 6.43225C72.8089 6.43225 73.3647 6.53623 73.8601 6.74417C74.3561 6.95213 74.7463 7.26407 75.032 7.67991C75.317 8.09583 75.452 8.61565 75.452 9.23952V9.69993H74.0704V9.23952C74.0704 8.85332 73.9957 8.54138 73.8302 8.30378C73.6653 8.06612 73.4549 7.88787 73.1692 7.78389C72.8842 7.67991 72.5538 7.6205 72.1785 7.6205C71.6227 7.6205 71.202 7.73933 70.9014 7.96214C70.6014 8.18495 70.4515 8.49682 70.4515 8.89788C70.4515 9.16525 70.5112 9.38807 70.6462 9.56625C70.7813 9.7445 70.9767 9.87818 71.2319 9.99702C71.4877 10.101 71.8181 10.205 72.1934 10.2941L72.6739 10.4129C73.2595 10.5466 73.7705 10.7099 74.221 10.903C74.6716 11.0962 75.017 11.3784 75.2722 11.7052C75.5273 12.0319 75.6624 12.4775 75.6624 13.0122C75.6624 13.5469 75.5273 14.0074 75.2572 14.4084C74.9865 14.8095 74.5963 15.1214 74.1009 15.3442C73.6049 15.6115 73.0193 15.7155 72.3434 15.7155Z" fill="currentColor"/>
<path d="M79.7021 15.7155C79.0561 15.7155 78.5003 15.5818 78.0199 15.3144C77.5394 15.0471 77.1635 14.6758 76.8934 14.1856C76.6233 13.6955 76.4883 13.131 76.4883 12.4924V12.3438C76.4883 11.6902 76.6233 11.1259 76.8934 10.6357C77.1635 10.1456 77.5245 9.7742 78.0049 9.50683C78.4854 9.23946 79.0262 9.10583 79.6566 9.10583C80.2728 9.10583 80.798 9.23946 81.2635 9.50683C81.7297 9.7742 82.0751 10.1456 82.3452 10.6208C82.6004 11.0961 82.7354 11.6457 82.7354 12.2844V12.7745H77.855C77.8699 13.3241 78.0647 13.7697 78.4101 14.0965C78.7711 14.4233 79.2061 14.5867 79.7469 14.5867C80.2423 14.5867 80.6182 14.4827 80.8733 14.2599C81.1285 14.0371 81.3239 13.7845 81.459 13.5024L82.5556 14.0668C82.4354 14.3044 82.255 14.5569 82.0297 14.8243C81.8044 15.0916 81.5044 15.3144 81.1285 15.4927C80.7383 15.6264 80.2728 15.7155 79.7021 15.7155ZM77.8394 11.7645H81.3538C81.3239 11.2893 81.1434 10.9179 80.8435 10.6505C80.5279 10.3832 80.1377 10.2495 79.6268 10.2495C79.1314 10.2495 78.7256 10.3832 78.4101 10.6505C78.0952 10.9179 77.9147 11.2893 77.8394 11.7645Z" fill="currentColor"/>
<path d="M84.9572 15.5373C84.567 15.5373 84.2664 15.4185 84.0411 15.1957C83.8158 14.9729 83.6957 14.661 83.6957 14.2748V7.18982H85.0176V9.26926H87.5406V10.3832H85.0176V14.0669C85.0176 14.3194 85.1377 14.4531 85.3779 14.4531H87.3451V15.5373H84.9572Z" fill="currentColor"/>
</g>
<defs>
<linearGradient id="paint0_linear_811_2465" x1="1.05958" y1="23.6344" x2="22.8619" y2="1.80235" gradientUnits="userSpaceOnUse">
<stop offset="0.102083" stop-color="#17AEFF"/>
<stop offset="0.440625" stop-color="#B263FE"/>
<stop offset="0.89375" stop-color="#F97ACE"/>
</linearGradient>
<linearGradient id="paint1_linear_811_2465" x1="1.05974" y1="23.6344" x2="22.862" y2="1.80236" gradientUnits="userSpaceOnUse">
<stop offset="0.102083" stop-color="#17AEFF"/>
<stop offset="0.440625" stop-color="#B263FE"/>
<stop offset="0.89375" stop-color="#F97ACE"/>
</linearGradient>
<linearGradient id="paint2_linear_811_2465" x1="1.05958" y1="23.6344" x2="22.8619" y2="1.80231" gradientUnits="userSpaceOnUse">
<stop offset="0.102083" stop-color="#17AEFF"/>
<stop offset="0.440625" stop-color="#B263FE"/>
<stop offset="0.89375" stop-color="#F97ACE"/>
</linearGradient>
<linearGradient id="paint3_linear_811_2465" x1="1.05973" y1="23.6343" x2="22.862" y2="1.80227" gradientUnits="userSpaceOnUse">
<stop offset="0.102083" stop-color="#17AEFF"/>
<stop offset="0.440625" stop-color="#B263FE"/>
<stop offset="0.89375" stop-color="#F97ACE"/>
</linearGradient>
<linearGradient id="paint4_linear_811_2465" x1="1.05971" y1="23.6344" x2="22.862" y2="1.80232" gradientUnits="userSpaceOnUse">
<stop offset="0.102083" stop-color="#17AEFF"/>
<stop offset="0.440625" stop-color="#B263FE"/>
<stop offset="0.89375" stop-color="#F97ACE"/>
</linearGradient>
<linearGradient id="paint5_linear_811_2465" x1="1.05966" y1="23.6344" x2="22.8619" y2="1.80232" gradientUnits="userSpaceOnUse">
<stop offset="0.102083" stop-color="#17AEFF"/>
<stop offset="0.440625" stop-color="#B263FE"/>
<stop offset="0.89375" stop-color="#F97ACE"/>
</linearGradient>
<linearGradient id="paint6_linear_811_2465" x1="1.05962" y1="23.6344" x2="22.8619" y2="1.80229" gradientUnits="userSpaceOnUse">
<stop offset="0.102083" stop-color="#17AEFF"/>
<stop offset="0.440625" stop-color="#B263FE"/>
<stop offset="0.89375" stop-color="#F97ACE"/>
</linearGradient>
<linearGradient id="paint7_linear_811_2465" x1="1.05971" y1="23.6344" x2="22.862" y2="1.8023" gradientUnits="userSpaceOnUse">
<stop offset="0.102083" stop-color="#17AEFF"/>
<stop offset="0.440625" stop-color="#B263FE"/>
<stop offset="0.89375" stop-color="#F97ACE"/>
</linearGradient>
<clipPath id="clip0_811_2465">
<rect width="87" height="24" fill="white" transform="translate(0.540527 0.462646)"/>
</clipPath>
</defs>
</svg>
