<svg width="1200" height="1200" viewBox="0 0 1200 1200" fill="none" xmlns="http://www.w3.org/2000/svg">
<g id="Symbol/White">
<g id="Logo/White">
<path id="Vector" d="M243.882 655.1C266.253 655.1 284.388 636.964 284.388 614.593C284.388 592.222 266.253 574.087 243.882 574.087C221.511 574.087 203.375 592.222 203.375 614.593C203.375 636.964 221.511 655.1 243.882 655.1Z" fill="white"/>
<path id="Vector_2" d="M587.592 998.807C609.963 998.807 628.099 980.671 628.099 958.3C628.099 935.929 609.963 917.794 587.592 917.794C565.221 917.794 547.086 935.929 547.086 958.3C547.086 980.671 565.221 998.807 587.592 998.807Z" fill="white"/>
<path id="Vector_3" d="M353.679 434.691C383.507 434.691 407.687 410.511 407.687 380.683C407.687 350.855 383.507 326.675 353.679 326.675C323.851 326.675 299.67 350.855 299.67 380.683C299.67 410.511 323.851 434.691 353.679 434.691Z" fill="white"/>
<path id="Vector_4" d="M816.726 897.742C846.554 897.742 870.734 873.562 870.734 843.733C870.734 813.905 846.554 789.725 816.726 789.725C786.898 789.725 762.718 813.905 762.718 843.733C762.718 873.562 786.898 897.742 816.726 897.742Z" fill="white"/>
<path id="Vector_5" d="M587.592 338.397C624.877 338.397 655.103 308.171 655.103 270.886C655.103 233.601 624.877 203.376 587.592 203.376C550.307 203.376 520.082 233.601 520.082 270.886C520.082 308.171 550.307 338.397 587.592 338.397Z" fill="white"/>
<path id="Vector_6" d="M998.813 614.593C998.813 577.308 968.588 547.083 931.303 547.083C894.018 547.083 863.792 577.308 863.792 614.593C863.792 651.878 894.018 682.104 931.303 682.104C968.588 682.104 998.813 651.878 998.813 614.593Z" fill="white"/>
<path id="Vector_7" d="M874.02 328.168C842.275 296.422 791.196 296.422 759.451 328.168C757.78 329.838 756.109 331.509 754.916 333.18C754.916 333.18 337.932 826.544 337.932 826.066C328.862 836.569 329.578 852.56 339.603 862.585C349.627 872.61 365.381 873.087 376.122 864.256C375.883 864.495 869.008 447.272 869.008 447.272C870.917 445.84 872.349 444.408 874.02 442.737C905.765 410.992 905.765 359.913 874.02 328.168Z" fill="url(#paint0_linear)"/>
<path id="Vector_8" d="M358.459 870.738C373.373 870.738 385.463 858.648 385.463 843.734C385.463 828.82 373.373 816.729 358.459 816.729C343.545 816.729 331.454 828.82 331.454 843.734C331.454 858.648 343.545 870.738 358.459 870.738Z" fill="white"/>
</g>
</g>
<defs>
<linearGradient id="paint0_linear" x1="339.581" y1="862.614" x2="866.787" y2="335.408" gradientUnits="userSpaceOnUse">
<stop stop-color="white" stop-opacity="0"/>
<stop offset="0.7085" stop-color="white"/>
</linearGradient>
</defs>
</svg>
